<?xml version="1.0" encoding="utf-8" standalone="no"?>
<!DOCTYPE svg PUBLIC "-//W3C//DTD SVG 1.1//EN"
  "http://www.w3.org/Graphics/SVG/1.1/DTD/svg11.dtd">
<svg xmlns:xlink="http://www.w3.org/1999/xlink" width="476.59098pt" height="276.268594pt" viewBox="0 0 476.59098 276.268594" xmlns="http://www.w3.org/2000/svg" version="1.1">
 <metadata>
  <rdf:RDF xmlns:dc="http://purl.org/dc/elements/1.1/" xmlns:cc="http://creativecommons.org/ns#" xmlns:rdf="http://www.w3.org/1999/02/22-rdf-syntax-ns#">
   <cc:Work>
    <dc:type rdf:resource="http://purl.org/dc/dcmitype/StillImage"/>
    <dc:date>2026-07-08T16:15:36.127409</dc:date>
    <dc:format>image/svg+xml</dc:format>
    <dc:creator>
     <cc:Agent>
      <dc:title>Matplotlib v3.9.2, https://matplotlib.org/</dc:title>
     </cc:Agent>
    </dc:creator>
   </cc:Work>
  </rdf:RDF>
 </metadata>
 <defs>
  <style type="text/css">*{stroke-linejoin: round; stroke-linecap: butt}</style>
 </defs>
 <g id="figure_1">
  <g id="patch_1">
   <path d="M 0 276.268594 
L 476.59098 276.268594 
L 476.59098 0 
L 0 0 
z
" style="fill: #ffffff"/>
  </g>
  <g id="axes_1">
   <g id="patch_2">
    <path d="M 47.917188 253.358281 
L 452.087187 253.358281 
L 452.087187 21.558281 
L 47.917188 21.558281 
z
" style="fill: #ffffff"/>
   </g>
   <g id="PathCollection_1">
    <defs>
     <path id="md3dff176e1" d="M 0 2.236068 
C 0.593012 2.236068 1.161816 2.000462 1.581139 1.581139 
C 2.000462 1.161816 2.236068 0.593012 2.236068 0 
C 2.236068 -0.593012 2.000462 -1.161816 1.581139 -1.581139 
C 1.161816 -2.000462 0.593012 -2.236068 0 -2.236068 
C -0.593012 -2.236068 -1.161816 -2.000462 -1.581139 -1.581139 
C -2.000462 -1.161816 -2.236068 -0.593012 -2.236068 0 
C -2.236068 0.593012 -2.000462 1.161816 -1.581139 1.581139 
C -1.161816 2.000462 -0.593012 2.236068 0 2.236068 
z
" style="stroke: #54a24b; stroke-opacity: 0.8"/>
    </defs>
    <g clip-path="url(#p5641364b51)">
     <use xlink:href="#md3dff176e1" x="66.288551" y="232.536236" style="fill: #54a24b; fill-opacity: 0.8; stroke: #54a24b; stroke-opacity: 0.8"/>
     <use xlink:href="#md3dff176e1" x="433.715824" y="242.821918" style="fill: #54a24b; fill-opacity: 0.8; stroke: #54a24b; stroke-opacity: 0.8"/>
    </g>
   </g>
   <g id="PathCollection_2">
    <g clip-path="url(#p5641364b51)">
     <use xlink:href="#md3dff176e1" x="66.288551" y="144.513091" style="fill: #54a24b; fill-opacity: 0.8; stroke: #54a24b; stroke-opacity: 0.8"/>
     <use xlink:href="#md3dff176e1" x="433.715824" y="194.722494" style="fill: #54a24b; fill-opacity: 0.8; stroke: #54a24b; stroke-opacity: 0.8"/>
    </g>
   </g>
   <g id="PathCollection_3">
    <g clip-path="url(#p5641364b51)">
     <use xlink:href="#md3dff176e1" x="66.288551" y="63.884528" style="fill: #54a24b; fill-opacity: 0.8; stroke: #54a24b; stroke-opacity: 0.8"/>
     <use xlink:href="#md3dff176e1" x="433.715824" y="154.540569" style="fill: #54a24b; fill-opacity: 0.8; stroke: #54a24b; stroke-opacity: 0.8"/>
    </g>
   </g>
   <g id="PathCollection_4">
    <g clip-path="url(#p5641364b51)">
     <use xlink:href="#md3dff176e1" x="66.288551" y="44.777731" style="fill: #54a24b; fill-opacity: 0.8; stroke: #54a24b; stroke-opacity: 0.8"/>
     <use xlink:href="#md3dff176e1" x="433.715824" y="131.458582" style="fill: #54a24b; fill-opacity: 0.8; stroke: #54a24b; stroke-opacity: 0.8"/>
    </g>
   </g>
   <g id="PathCollection_5">
    <defs>
     <path id="m7d1bfb2371" d="M 0 2.236068 
C 0.593012 2.236068 1.161816 2.000462 1.581139 1.581139 
C 2.000462 1.161816 2.236068 0.593012 2.236068 0 
C 2.236068 -0.593012 2.000462 -1.161816 1.581139 -1.581139 
C 1.161816 -2.000462 0.593012 -2.236068 0 -2.236068 
C -0.593012 -2.236068 -1.161816 -2.000462 -1.581139 -1.581139 
C -2.000462 -1.161816 -2.236068 -0.593012 -2.236068 0 
C -2.236068 0.593012 -2.000462 1.161816 -1.581139 1.581139 
C -1.161816 2.000462 -0.593012 2.236068 0 2.236068 
z
" style="stroke: #e45756; stroke-opacity: 0.8"/>
    </defs>
    <g clip-path="url(#p5641364b51)">
     <use xlink:href="#m7d1bfb2371" x="66.288551" y="94.927704" style="fill: #e45756; fill-opacity: 0.8; stroke: #e45756; stroke-opacity: 0.8"/>
     <use xlink:href="#m7d1bfb2371" x="433.715824" y="80.566362" style="fill: #e45756; fill-opacity: 0.8; stroke: #e45756; stroke-opacity: 0.8"/>
    </g>
   </g>
   <g id="PathCollection_6">
    <g clip-path="url(#p5641364b51)">
     <use xlink:href="#md3dff176e1" x="66.288551" y="101.204586" style="fill: #54a24b; fill-opacity: 0.8; stroke: #54a24b; stroke-opacity: 0.8"/>
     <use xlink:href="#md3dff176e1" x="433.715824" y="154.697178" style="fill: #54a24b; fill-opacity: 0.8; stroke: #54a24b; stroke-opacity: 0.8"/>
    </g>
   </g>
   <g id="PathCollection_7">
    <g clip-path="url(#p5641364b51)">
     <use xlink:href="#m7d1bfb2371" x="66.288551" y="187.461176" style="fill: #e45756; fill-opacity: 0.8; stroke: #e45756; stroke-opacity: 0.8"/>
     <use xlink:href="#m7d1bfb2371" x="433.715824" y="180.715527" style="fill: #e45756; fill-opacity: 0.8; stroke: #e45756; stroke-opacity: 0.8"/>
    </g>
   </g>
   <g id="PathCollection_8">
    <g clip-path="url(#p5641364b51)">
     <use xlink:href="#md3dff176e1" x="66.288551" y="117.663184" style="fill: #54a24b; fill-opacity: 0.8; stroke: #54a24b; stroke-opacity: 0.8"/>
     <use xlink:href="#md3dff176e1" x="433.715824" y="172.972644" style="fill: #54a24b; fill-opacity: 0.8; stroke: #54a24b; stroke-opacity: 0.8"/>
    </g>
   </g>
   <g id="PathCollection_9">
    <g clip-path="url(#p5641364b51)">
     <use xlink:href="#m7d1bfb2371" x="66.288551" y="143.651785" style="fill: #e45756; fill-opacity: 0.8; stroke: #e45756; stroke-opacity: 0.8"/>
     <use xlink:href="#m7d1bfb2371" x="433.715824" y="108.45784" style="fill: #e45756; fill-opacity: 0.8; stroke: #e45756; stroke-opacity: 0.8"/>
    </g>
   </g>
   <g id="PathCollection_10">
    <g clip-path="url(#p5641364b51)">
     <use xlink:href="#md3dff176e1" x="66.288551" y="144.6184" style="fill: #54a24b; fill-opacity: 0.8; stroke: #54a24b; stroke-opacity: 0.8"/>
     <use xlink:href="#md3dff176e1" x="433.715824" y="214.312588" style="fill: #54a24b; fill-opacity: 0.8; stroke: #54a24b; stroke-opacity: 0.8"/>
    </g>
   </g>
   <g id="PathCollection_11">
    <g clip-path="url(#p5641364b51)">
     <use xlink:href="#m7d1bfb2371" x="66.288551" y="167.65103" style="fill: #e45756; fill-opacity: 0.8; stroke: #e45756; stroke-opacity: 0.8"/>
     <use xlink:href="#m7d1bfb2371" x="433.715824" y="158.802147" style="fill: #e45756; fill-opacity: 0.8; stroke: #e45756; stroke-opacity: 0.8"/>
    </g>
   </g>
   <g id="PathCollection_12">
    <g clip-path="url(#p5641364b51)">
     <use xlink:href="#md3dff176e1" x="66.288551" y="51.147984" style="fill: #54a24b; fill-opacity: 0.8; stroke: #54a24b; stroke-opacity: 0.8"/>
     <use xlink:href="#md3dff176e1" x="433.715824" y="116.309391" style="fill: #54a24b; fill-opacity: 0.8; stroke: #54a24b; stroke-opacity: 0.8"/>
    </g>
   </g>
   <g id="PathCollection_13">
    <g clip-path="url(#p5641364b51)">
     <use xlink:href="#m7d1bfb2371" x="66.288551" y="216.18365" style="fill: #e45756; fill-opacity: 0.8; stroke: #e45756; stroke-opacity: 0.8"/>
     <use xlink:href="#m7d1bfb2371" x="433.715824" y="203.040518" style="fill: #e45756; fill-opacity: 0.8; stroke: #e45756; stroke-opacity: 0.8"/>
    </g>
   </g>
   <g id="PathCollection_14">
    <g clip-path="url(#p5641364b51)">
     <use xlink:href="#md3dff176e1" x="66.288551" y="32.094645" style="fill: #54a24b; fill-opacity: 0.8; stroke: #54a24b; stroke-opacity: 0.8"/>
     <use xlink:href="#md3dff176e1" x="433.715824" y="194.172879" style="fill: #54a24b; fill-opacity: 0.8; stroke: #54a24b; stroke-opacity: 0.8"/>
    </g>
   </g>
   <g id="PathCollection_15">
    <g clip-path="url(#p5641364b51)">
     <use xlink:href="#md3dff176e1" x="66.288551" y="168.459389" style="fill: #54a24b; fill-opacity: 0.8; stroke: #54a24b; stroke-opacity: 0.8"/>
     <use xlink:href="#md3dff176e1" x="433.715824" y="215.947966" style="fill: #54a24b; fill-opacity: 0.8; stroke: #54a24b; stroke-opacity: 0.8"/>
    </g>
   </g>
   <g id="PathCollection_16">
    <g clip-path="url(#p5641364b51)">
     <use xlink:href="#m7d1bfb2371" x="66.288551" y="209.416053" style="fill: #e45756; fill-opacity: 0.8; stroke: #e45756; stroke-opacity: 0.8"/>
     <use xlink:href="#m7d1bfb2371" x="433.715824" y="187.549559" style="fill: #e45756; fill-opacity: 0.8; stroke: #e45756; stroke-opacity: 0.8"/>
    </g>
   </g>
   <g id="PathCollection_17">
    <g clip-path="url(#p5641364b51)">
     <use xlink:href="#md3dff176e1" x="66.288551" y="86.704798" style="fill: #54a24b; fill-opacity: 0.8; stroke: #54a24b; stroke-opacity: 0.8"/>
     <use xlink:href="#md3dff176e1" x="433.715824" y="183.431983" style="fill: #54a24b; fill-opacity: 0.8; stroke: #54a24b; stroke-opacity: 0.8"/>
    </g>
   </g>
   <g id="PathCollection_18">
    <g clip-path="url(#p5641364b51)">
     <use xlink:href="#md3dff176e1" x="66.288551" y="33.834692" style="fill: #54a24b; fill-opacity: 0.8; stroke: #54a24b; stroke-opacity: 0.8"/>
     <use xlink:href="#md3dff176e1" x="433.715824" y="105.144143" style="fill: #54a24b; fill-opacity: 0.8; stroke: #54a24b; stroke-opacity: 0.8"/>
    </g>
   </g>
   <g id="PathCollection_19">
    <g clip-path="url(#p5641364b51)">
     <use xlink:href="#md3dff176e1" x="66.288551" y="84.141177" style="fill: #54a24b; fill-opacity: 0.8; stroke: #54a24b; stroke-opacity: 0.8"/>
     <use xlink:href="#md3dff176e1" x="433.715824" y="180.590315" style="fill: #54a24b; fill-opacity: 0.8; stroke: #54a24b; stroke-opacity: 0.8"/>
    </g>
   </g>
   <g id="PathCollection_20">
    <g clip-path="url(#p5641364b51)">
     <use xlink:href="#md3dff176e1" x="66.288551" y="78.967114" style="fill: #54a24b; fill-opacity: 0.8; stroke: #54a24b; stroke-opacity: 0.8"/>
     <use xlink:href="#md3dff176e1" x="433.715824" y="150.911205" style="fill: #54a24b; fill-opacity: 0.8; stroke: #54a24b; stroke-opacity: 0.8"/>
    </g>
   </g>
   <g id="matplotlib.axis_1">
    <g id="xtick_1">
     <g id="line2d_1">
      <path d="M 66.288551 253.358281 
L 66.288551 21.558281 
" clip-path="url(#p5641364b51)" style="fill: none; stroke: #b0b0b0; stroke-opacity: 0.25; stroke-width: 0.8; stroke-linecap: square"/>
     </g>
     <g id="line2d_2">
      <defs>
       <path id="m9bae73c7d2" d="M 0 0 
L 0 3.5 
" style="stroke: #000000; stroke-width: 0.8"/>
      </defs>
      <g>
       <use xlink:href="#m9bae73c7d2" x="66.288551" y="253.358281" style="stroke: #000000; stroke-width: 0.8"/>
      </g>
     </g>
     <g id="text_1">
      <!-- Fixed 32 kHz -->
      <g transform="translate(37.689645 267.196875) scale(0.09 -0.09)">
       <defs>
        <path id="DejaVuSans-46" d="M 628 4666 
L 3309 4666 
L 3309 4134 
L 1259 4134 
L 1259 2759 
L 3109 2759 
L 3109 2228 
L 1259 2228 
L 1259 0 
L 628 0 
L 628 4666 
z
" transform="scale(0.015625)"/>
        <path id="DejaVuSans-69" d="M 603 3500 
L 1178 3500 
L 1178 0 
L 603 0 
L 603 3500 
z
M 603 4863 
L 1178 4863 
L 1178 4134 
L 603 4134 
L 603 4863 
z
" transform="scale(0.015625)"/>
        <path id="DejaVuSans-78" d="M 3513 3500 
L 2247 1797 
L 3578 0 
L 2900 0 
L 1881 1375 
L 863 0 
L 184 0 
L 1544 1831 
L 300 3500 
L 978 3500 
L 1906 2253 
L 2834 3500 
L 3513 3500 
z
" transform="scale(0.015625)"/>
        <path id="DejaVuSans-65" d="M 3597 1894 
L 3597 1613 
L 953 1613 
Q 991 1019 1311 708 
Q 1631 397 2203 397 
Q 2534 397 2845 478 
Q 3156 559 3463 722 
L 3463 178 
Q 3153 47 2828 -22 
Q 2503 -91 2169 -91 
Q 1331 -91 842 396 
Q 353 884 353 1716 
Q 353 2575 817 3079 
Q 1281 3584 2069 3584 
Q 2775 3584 3186 3129 
Q 3597 2675 3597 1894 
z
M 3022 2063 
Q 3016 2534 2758 2815 
Q 2500 3097 2075 3097 
Q 1594 3097 1305 2825 
Q 1016 2553 972 2059 
L 3022 2063 
z
" transform="scale(0.015625)"/>
        <path id="DejaVuSans-64" d="M 2906 2969 
L 2906 4863 
L 3481 4863 
L 3481 0 
L 2906 0 
L 2906 525 
Q 2725 213 2448 61 
Q 2172 -91 1784 -91 
Q 1150 -91 751 415 
Q 353 922 353 1747 
Q 353 2572 751 3078 
Q 1150 3584 1784 3584 
Q 2172 3584 2448 3432 
Q 2725 3281 2906 2969 
z
M 947 1747 
Q 947 1113 1208 752 
Q 1469 391 1925 391 
Q 2381 391 2643 752 
Q 2906 1113 2906 1747 
Q 2906 2381 2643 2742 
Q 2381 3103 1925 3103 
Q 1469 3103 1208 2742 
Q 947 2381 947 1747 
z
" transform="scale(0.015625)"/>
        <path id="DejaVuSans-20" transform="scale(0.015625)"/>
        <path id="DejaVuSans-33" d="M 2597 2516 
Q 3050 2419 3304 2112 
Q 3559 1806 3559 1356 
Q 3559 666 3084 287 
Q 2609 -91 1734 -91 
Q 1441 -91 1130 -33 
Q 819 25 488 141 
L 488 750 
Q 750 597 1062 519 
Q 1375 441 1716 441 
Q 2309 441 2620 675 
Q 2931 909 2931 1356 
Q 2931 1769 2642 2001 
Q 2353 2234 1838 2234 
L 1294 2234 
L 1294 2753 
L 1863 2753 
Q 2328 2753 2575 2939 
Q 2822 3125 2822 3475 
Q 2822 3834 2567 4026 
Q 2313 4219 1838 4219 
Q 1578 4219 1281 4162 
Q 984 4106 628 3988 
L 628 4550 
Q 988 4650 1302 4700 
Q 1616 4750 1894 4750 
Q 2613 4750 3031 4423 
Q 3450 4097 3450 3541 
Q 3450 3153 3228 2886 
Q 3006 2619 2597 2516 
z
" transform="scale(0.015625)"/>
        <path id="DejaVuSans-32" d="M 1228 531 
L 3431 531 
L 3431 0 
L 469 0 
L 469 531 
Q 828 903 1448 1529 
Q 2069 2156 2228 2338 
Q 2531 2678 2651 2914 
Q 2772 3150 2772 3378 
Q 2772 3750 2511 3984 
Q 2250 4219 1831 4219 
Q 1534 4219 1204 4116 
Q 875 4013 500 3803 
L 500 4441 
Q 881 4594 1212 4672 
Q 1544 4750 1819 4750 
Q 2544 4750 2975 4387 
Q 3406 4025 3406 3419 
Q 3406 3131 3298 2873 
Q 3191 2616 2906 2266 
Q 2828 2175 2409 1742 
Q 1991 1309 1228 531 
z
" transform="scale(0.015625)"/>
        <path id="DejaVuSans-6b" d="M 581 4863 
L 1159 4863 
L 1159 1991 
L 2875 3500 
L 3609 3500 
L 1753 1863 
L 3688 0 
L 2938 0 
L 1159 1709 
L 1159 0 
L 581 0 
L 581 4863 
z
" transform="scale(0.015625)"/>
        <path id="DejaVuSans-48" d="M 628 4666 
L 1259 4666 
L 1259 2753 
L 3553 2753 
L 3553 4666 
L 4184 4666 
L 4184 0 
L 3553 0 
L 3553 2222 
L 1259 2222 
L 1259 0 
L 628 0 
L 628 4666 
z
" transform="scale(0.015625)"/>
        <path id="DejaVuSans-7a" d="M 353 3500 
L 3084 3500 
L 3084 2975 
L 922 459 
L 3084 459 
L 3084 0 
L 275 0 
L 275 525 
L 2438 3041 
L 353 3041 
L 353 3500 
z
" transform="scale(0.015625)"/>
       </defs>
       <use xlink:href="#DejaVuSans-46"/>
       <use xlink:href="#DejaVuSans-69" x="50.269531"/>
       <use xlink:href="#DejaVuSans-78" x="78.052734"/>
       <use xlink:href="#DejaVuSans-65" x="134.107422"/>
       <use xlink:href="#DejaVuSans-64" x="195.630859"/>
       <use xlink:href="#DejaVuSans-20" x="259.107422"/>
       <use xlink:href="#DejaVuSans-33" x="290.894531"/>
       <use xlink:href="#DejaVuSans-32" x="354.517578"/>
       <use xlink:href="#DejaVuSans-20" x="418.140625"/>
       <use xlink:href="#DejaVuSans-6b" x="449.927734"/>
       <use xlink:href="#DejaVuSans-48" x="507.837891"/>
       <use xlink:href="#DejaVuSans-7a" x="583.033203"/>
      </g>
     </g>
    </g>
    <g id="xtick_2">
     <g id="line2d_3">
      <path d="M 433.715824 253.358281 
L 433.715824 21.558281 
" clip-path="url(#p5641364b51)" style="fill: none; stroke: #b0b0b0; stroke-opacity: 0.25; stroke-width: 0.8; stroke-linecap: square"/>
     </g>
     <g id="line2d_4">
      <g>
       <use xlink:href="#m9bae73c7d2" x="433.715824" y="253.358281" style="stroke: #000000; stroke-width: 0.8"/>
      </g>
     </g>
     <g id="text_2">
      <!-- Frequency-agile -->
      <g transform="translate(398.040668 267.196875) scale(0.09 -0.09)">
       <defs>
        <path id="DejaVuSans-72" d="M 2631 2963 
Q 2534 3019 2420 3045 
Q 2306 3072 2169 3072 
Q 1681 3072 1420 2755 
Q 1159 2438 1159 1844 
L 1159 0 
L 581 0 
L 581 3500 
L 1159 3500 
L 1159 2956 
Q 1341 3275 1631 3429 
Q 1922 3584 2338 3584 
Q 2397 3584 2469 3576 
Q 2541 3569 2628 3553 
L 2631 2963 
z
" transform="scale(0.015625)"/>
        <path id="DejaVuSans-71" d="M 947 1747 
Q 947 1113 1208 752 
Q 1469 391 1925 391 
Q 2381 391 2643 752 
Q 2906 1113 2906 1747 
Q 2906 2381 2643 2742 
Q 2381 3103 1925 3103 
Q 1469 3103 1208 2742 
Q 947 2381 947 1747 
z
M 2906 525 
Q 2725 213 2448 61 
Q 2172 -91 1784 -91 
Q 1150 -91 751 415 
Q 353 922 353 1747 
Q 353 2572 751 3078 
Q 1150 3584 1784 3584 
Q 2172 3584 2448 3432 
Q 2725 3281 2906 2969 
L 2906 3500 
L 3481 3500 
L 3481 -1331 
L 2906 -1331 
L 2906 525 
z
" transform="scale(0.015625)"/>
        <path id="DejaVuSans-75" d="M 544 1381 
L 544 3500 
L 1119 3500 
L 1119 1403 
Q 1119 906 1312 657 
Q 1506 409 1894 409 
Q 2359 409 2629 706 
Q 2900 1003 2900 1516 
L 2900 3500 
L 3475 3500 
L 3475 0 
L 2900 0 
L 2900 538 
Q 2691 219 2414 64 
Q 2138 -91 1772 -91 
Q 1169 -91 856 284 
Q 544 659 544 1381 
z
M 1991 3584 
L 1991 3584 
z
" transform="scale(0.015625)"/>
        <path id="DejaVuSans-6e" d="M 3513 2113 
L 3513 0 
L 2938 0 
L 2938 2094 
Q 2938 2591 2744 2837 
Q 2550 3084 2163 3084 
Q 1697 3084 1428 2787 
Q 1159 2491 1159 1978 
L 1159 0 
L 581 0 
L 581 3500 
L 1159 3500 
L 1159 2956 
Q 1366 3272 1645 3428 
Q 1925 3584 2291 3584 
Q 2894 3584 3203 3211 
Q 3513 2838 3513 2113 
z
" transform="scale(0.015625)"/>
        <path id="DejaVuSans-63" d="M 3122 3366 
L 3122 2828 
Q 2878 2963 2633 3030 
Q 2388 3097 2138 3097 
Q 1578 3097 1268 2742 
Q 959 2388 959 1747 
Q 959 1106 1268 751 
Q 1578 397 2138 397 
Q 2388 397 2633 464 
Q 2878 531 3122 666 
L 3122 134 
Q 2881 22 2623 -34 
Q 2366 -91 2075 -91 
Q 1284 -91 818 406 
Q 353 903 353 1747 
Q 353 2603 823 3093 
Q 1294 3584 2113 3584 
Q 2378 3584 2631 3529 
Q 2884 3475 3122 3366 
z
" transform="scale(0.015625)"/>
        <path id="DejaVuSans-79" d="M 2059 -325 
Q 1816 -950 1584 -1140 
Q 1353 -1331 966 -1331 
L 506 -1331 
L 506 -850 
L 844 -850 
Q 1081 -850 1212 -737 
Q 1344 -625 1503 -206 
L 1606 56 
L 191 3500 
L 800 3500 
L 1894 763 
L 2988 3500 
L 3597 3500 
L 2059 -325 
z
" transform="scale(0.015625)"/>
        <path id="DejaVuSans-2d" d="M 313 2009 
L 1997 2009 
L 1997 1497 
L 313 1497 
L 313 2009 
z
" transform="scale(0.015625)"/>
        <path id="DejaVuSans-61" d="M 2194 1759 
Q 1497 1759 1228 1600 
Q 959 1441 959 1056 
Q 959 750 1161 570 
Q 1363 391 1709 391 
Q 2188 391 2477 730 
Q 2766 1069 2766 1631 
L 2766 1759 
L 2194 1759 
z
M 3341 1997 
L 3341 0 
L 2766 0 
L 2766 531 
Q 2569 213 2275 61 
Q 1981 -91 1556 -91 
Q 1019 -91 701 211 
Q 384 513 384 1019 
Q 384 1609 779 1909 
Q 1175 2209 1959 2209 
L 2766 2209 
L 2766 2266 
Q 2766 2663 2505 2880 
Q 2244 3097 1772 3097 
Q 1472 3097 1187 3025 
Q 903 2953 641 2809 
L 641 3341 
Q 956 3463 1253 3523 
Q 1550 3584 1831 3584 
Q 2591 3584 2966 3190 
Q 3341 2797 3341 1997 
z
" transform="scale(0.015625)"/>
        <path id="DejaVuSans-67" d="M 2906 1791 
Q 2906 2416 2648 2759 
Q 2391 3103 1925 3103 
Q 1463 3103 1205 2759 
Q 947 2416 947 1791 
Q 947 1169 1205 825 
Q 1463 481 1925 481 
Q 2391 481 2648 825 
Q 2906 1169 2906 1791 
z
M 3481 434 
Q 3481 -459 3084 -895 
Q 2688 -1331 1869 -1331 
Q 1566 -1331 1297 -1286 
Q 1028 -1241 775 -1147 
L 775 -588 
Q 1028 -725 1275 -790 
Q 1522 -856 1778 -856 
Q 2344 -856 2625 -561 
Q 2906 -266 2906 331 
L 2906 616 
Q 2728 306 2450 153 
Q 2172 0 1784 0 
Q 1141 0 747 490 
Q 353 981 353 1791 
Q 353 2603 747 3093 
Q 1141 3584 1784 3584 
Q 2172 3584 2450 3431 
Q 2728 3278 2906 2969 
L 2906 3500 
L 3481 3500 
L 3481 434 
z
" transform="scale(0.015625)"/>
        <path id="DejaVuSans-6c" d="M 603 4863 
L 1178 4863 
L 1178 0 
L 603 0 
L 603 4863 
z
" transform="scale(0.015625)"/>
       </defs>
       <use xlink:href="#DejaVuSans-46"/>
       <use xlink:href="#DejaVuSans-72" x="50.269531"/>
       <use xlink:href="#DejaVuSans-65" x="89.132812"/>
       <use xlink:href="#DejaVuSans-71" x="150.65625"/>
       <use xlink:href="#DejaVuSans-75" x="214.132812"/>
       <use xlink:href="#DejaVuSans-65" x="277.511719"/>
       <use xlink:href="#DejaVuSans-6e" x="339.035156"/>
       <use xlink:href="#DejaVuSans-63" x="402.414062"/>
       <use xlink:href="#DejaVuSans-79" x="457.394531"/>
       <use xlink:href="#DejaVuSans-2d" x="514.824219"/>
       <use xlink:href="#DejaVuSans-61" x="550.908203"/>
       <use xlink:href="#DejaVuSans-67" x="612.1875"/>
       <use xlink:href="#DejaVuSans-69" x="675.664062"/>
       <use xlink:href="#DejaVuSans-6c" x="703.447266"/>
       <use xlink:href="#DejaVuSans-65" x="731.230469"/>
      </g>
     </g>
    </g>
   </g>
   <g id="matplotlib.axis_2">
    <g id="ytick_1">
     <g id="line2d_5">
      <path d="M 47.917188 237.952785 
L 452.087187 237.952785 
" clip-path="url(#p5641364b51)" style="fill: none; stroke: #b0b0b0; stroke-opacity: 0.25; stroke-width: 0.8; stroke-linecap: square"/>
     </g>
     <g id="line2d_6">
      <defs>
       <path id="m6942312747" d="M 0 0 
L -3.5 0 
" style="stroke: #000000; stroke-width: 0.8"/>
      </defs>
      <g>
       <use xlink:href="#m6942312747" x="47.917188" y="237.952785" style="stroke: #000000; stroke-width: 0.8"/>
      </g>
     </g>
     <g id="text_3">
      <!-- 2.5 -->
      <g transform="translate(26.604375 241.372082) scale(0.09 -0.09)">
       <defs>
        <path id="DejaVuSans-2e" d="M 684 794 
L 1344 794 
L 1344 0 
L 684 0 
L 684 794 
z
" transform="scale(0.015625)"/>
        <path id="DejaVuSans-35" d="M 691 4666 
L 3169 4666 
L 3169 4134 
L 1269 4134 
L 1269 2991 
Q 1406 3038 1543 3061 
Q 1681 3084 1819 3084 
Q 2600 3084 3056 2656 
Q 3513 2228 3513 1497 
Q 3513 744 3044 326 
Q 2575 -91 1722 -91 
Q 1428 -91 1123 -41 
Q 819 9 494 109 
L 494 744 
Q 775 591 1075 516 
Q 1375 441 1709 441 
Q 2250 441 2565 725 
Q 2881 1009 2881 1497 
Q 2881 1984 2565 2268 
Q 2250 2553 1709 2553 
Q 1456 2553 1204 2497 
Q 953 2441 691 2322 
L 691 4666 
z
" transform="scale(0.015625)"/>
       </defs>
       <use xlink:href="#DejaVuSans-32"/>
       <use xlink:href="#DejaVuSans-2e" x="63.623047"/>
       <use xlink:href="#DejaVuSans-35" x="95.410156"/>
      </g>
     </g>
    </g>
    <g id="ytick_2">
     <g id="line2d_7">
      <path d="M 47.917188 209.931885 
L 452.087187 209.931885 
" clip-path="url(#p5641364b51)" style="fill: none; stroke: #b0b0b0; stroke-opacity: 0.25; stroke-width: 0.8; stroke-linecap: square"/>
     </g>
     <g id="line2d_8">
      <g>
       <use xlink:href="#m6942312747" x="47.917188" y="209.931885" style="stroke: #000000; stroke-width: 0.8"/>
      </g>
     </g>
     <g id="text_4">
      <!-- 5.0 -->
      <g transform="translate(26.604375 213.351182) scale(0.09 -0.09)">
       <defs>
        <path id="DejaVuSans-30" d="M 2034 4250 
Q 1547 4250 1301 3770 
Q 1056 3291 1056 2328 
Q 1056 1369 1301 889 
Q 1547 409 2034 409 
Q 2525 409 2770 889 
Q 3016 1369 3016 2328 
Q 3016 3291 2770 3770 
Q 2525 4250 2034 4250 
z
M 2034 4750 
Q 2819 4750 3233 4129 
Q 3647 3509 3647 2328 
Q 3647 1150 3233 529 
Q 2819 -91 2034 -91 
Q 1250 -91 836 529 
Q 422 1150 422 2328 
Q 422 3509 836 4129 
Q 1250 4750 2034 4750 
z
" transform="scale(0.015625)"/>
       </defs>
       <use xlink:href="#DejaVuSans-35"/>
       <use xlink:href="#DejaVuSans-2e" x="63.623047"/>
       <use xlink:href="#DejaVuSans-30" x="95.410156"/>
      </g>
     </g>
    </g>
    <g id="ytick_3">
     <g id="line2d_9">
      <path d="M 47.917188 181.910985 
L 452.087187 181.910985 
" clip-path="url(#p5641364b51)" style="fill: none; stroke: #b0b0b0; stroke-opacity: 0.25; stroke-width: 0.8; stroke-linecap: square"/>
     </g>
     <g id="line2d_10">
      <g>
       <use xlink:href="#m6942312747" x="47.917188" y="181.910985" style="stroke: #000000; stroke-width: 0.8"/>
      </g>
     </g>
     <g id="text_5">
      <!-- 7.5 -->
      <g transform="translate(26.604375 185.330282) scale(0.09 -0.09)">
       <defs>
        <path id="DejaVuSans-37" d="M 525 4666 
L 3525 4666 
L 3525 4397 
L 1831 0 
L 1172 0 
L 2766 4134 
L 525 4134 
L 525 4666 
z
" transform="scale(0.015625)"/>
       </defs>
       <use xlink:href="#DejaVuSans-37"/>
       <use xlink:href="#DejaVuSans-2e" x="63.623047"/>
       <use xlink:href="#DejaVuSans-35" x="95.410156"/>
      </g>
     </g>
    </g>
    <g id="ytick_4">
     <g id="line2d_11">
      <path d="M 47.917188 153.890086 
L 452.087187 153.890086 
" clip-path="url(#p5641364b51)" style="fill: none; stroke: #b0b0b0; stroke-opacity: 0.25; stroke-width: 0.8; stroke-linecap: square"/>
     </g>
     <g id="line2d_12">
      <g>
       <use xlink:href="#m6942312747" x="47.917188" y="153.890086" style="stroke: #000000; stroke-width: 0.8"/>
      </g>
     </g>
     <g id="text_6">
      <!-- 10.0 -->
      <g transform="translate(20.878125 157.309383) scale(0.09 -0.09)">
       <defs>
        <path id="DejaVuSans-31" d="M 794 531 
L 1825 531 
L 1825 4091 
L 703 3866 
L 703 4441 
L 1819 4666 
L 2450 4666 
L 2450 531 
L 3481 531 
L 3481 0 
L 794 0 
L 794 531 
z
" transform="scale(0.015625)"/>
       </defs>
       <use xlink:href="#DejaVuSans-31"/>
       <use xlink:href="#DejaVuSans-30" x="63.623047"/>
       <use xlink:href="#DejaVuSans-2e" x="127.246094"/>
       <use xlink:href="#DejaVuSans-30" x="159.033203"/>
      </g>
     </g>
    </g>
    <g id="ytick_5">
     <g id="line2d_13">
      <path d="M 47.917188 125.869186 
L 452.087187 125.869186 
" clip-path="url(#p5641364b51)" style="fill: none; stroke: #b0b0b0; stroke-opacity: 0.25; stroke-width: 0.8; stroke-linecap: square"/>
     </g>
     <g id="line2d_14">
      <g>
       <use xlink:href="#m6942312747" x="47.917188" y="125.869186" style="stroke: #000000; stroke-width: 0.8"/>
      </g>
     </g>
     <g id="text_7">
      <!-- 12.5 -->
      <g transform="translate(20.878125 129.288483) scale(0.09 -0.09)">
       <use xlink:href="#DejaVuSans-31"/>
       <use xlink:href="#DejaVuSans-32" x="63.623047"/>
       <use xlink:href="#DejaVuSans-2e" x="127.246094"/>
       <use xlink:href="#DejaVuSans-35" x="159.033203"/>
      </g>
     </g>
    </g>
    <g id="ytick_6">
     <g id="line2d_15">
      <path d="M 47.917188 97.848287 
L 452.087187 97.848287 
" clip-path="url(#p5641364b51)" style="fill: none; stroke: #b0b0b0; stroke-opacity: 0.25; stroke-width: 0.8; stroke-linecap: square"/>
     </g>
     <g id="line2d_16">
      <g>
       <use xlink:href="#m6942312747" x="47.917188" y="97.848287" style="stroke: #000000; stroke-width: 0.8"/>
      </g>
     </g>
     <g id="text_8">
      <!-- 15.0 -->
      <g transform="translate(20.878125 101.267583) scale(0.09 -0.09)">
       <use xlink:href="#DejaVuSans-31"/>
       <use xlink:href="#DejaVuSans-35" x="63.623047"/>
       <use xlink:href="#DejaVuSans-2e" x="127.246094"/>
       <use xlink:href="#DejaVuSans-30" x="159.033203"/>
      </g>
     </g>
    </g>
    <g id="ytick_7">
     <g id="line2d_17">
      <path d="M 47.917188 69.827387 
L 452.087187 69.827387 
" clip-path="url(#p5641364b51)" style="fill: none; stroke: #b0b0b0; stroke-opacity: 0.25; stroke-width: 0.8; stroke-linecap: square"/>
     </g>
     <g id="line2d_18">
      <g>
       <use xlink:href="#m6942312747" x="47.917188" y="69.827387" style="stroke: #000000; stroke-width: 0.8"/>
      </g>
     </g>
     <g id="text_9">
      <!-- 17.5 -->
      <g transform="translate(20.878125 73.246684) scale(0.09 -0.09)">
       <use xlink:href="#DejaVuSans-31"/>
       <use xlink:href="#DejaVuSans-37" x="63.623047"/>
       <use xlink:href="#DejaVuSans-2e" x="127.246094"/>
       <use xlink:href="#DejaVuSans-35" x="159.033203"/>
      </g>
     </g>
    </g>
    <g id="ytick_8">
     <g id="line2d_19">
      <path d="M 47.917188 41.806487 
L 452.087187 41.806487 
" clip-path="url(#p5641364b51)" style="fill: none; stroke: #b0b0b0; stroke-opacity: 0.25; stroke-width: 0.8; stroke-linecap: square"/>
     </g>
     <g id="line2d_20">
      <g>
       <use xlink:href="#m6942312747" x="47.917188" y="41.806487" style="stroke: #000000; stroke-width: 0.8"/>
      </g>
     </g>
     <g id="text_10">
      <!-- 20.0 -->
      <g transform="translate(20.878125 45.225784) scale(0.09 -0.09)">
       <use xlink:href="#DejaVuSans-32"/>
       <use xlink:href="#DejaVuSans-30" x="63.623047"/>
       <use xlink:href="#DejaVuSans-2e" x="127.246094"/>
       <use xlink:href="#DejaVuSans-30" x="159.033203"/>
      </g>
     </g>
    </g>
    <g id="text_11">
     <!-- Settled RMSE (m) -->
     <g transform="translate(14.798438 181.341094) rotate(-90) scale(0.1 -0.1)">
      <defs>
       <path id="DejaVuSans-53" d="M 3425 4513 
L 3425 3897 
Q 3066 4069 2747 4153 
Q 2428 4238 2131 4238 
Q 1616 4238 1336 4038 
Q 1056 3838 1056 3469 
Q 1056 3159 1242 3001 
Q 1428 2844 1947 2747 
L 2328 2669 
Q 3034 2534 3370 2195 
Q 3706 1856 3706 1288 
Q 3706 609 3251 259 
Q 2797 -91 1919 -91 
Q 1588 -91 1214 -16 
Q 841 59 441 206 
L 441 856 
Q 825 641 1194 531 
Q 1563 422 1919 422 
Q 2459 422 2753 634 
Q 3047 847 3047 1241 
Q 3047 1584 2836 1778 
Q 2625 1972 2144 2069 
L 1759 2144 
Q 1053 2284 737 2584 
Q 422 2884 422 3419 
Q 422 4038 858 4394 
Q 1294 4750 2059 4750 
Q 2388 4750 2728 4690 
Q 3069 4631 3425 4513 
z
" transform="scale(0.015625)"/>
       <path id="DejaVuSans-74" d="M 1172 4494 
L 1172 3500 
L 2356 3500 
L 2356 3053 
L 1172 3053 
L 1172 1153 
Q 1172 725 1289 603 
Q 1406 481 1766 481 
L 2356 481 
L 2356 0 
L 1766 0 
Q 1100 0 847 248 
Q 594 497 594 1153 
L 594 3053 
L 172 3053 
L 172 3500 
L 594 3500 
L 594 4494 
L 1172 4494 
z
" transform="scale(0.015625)"/>
       <path id="DejaVuSans-52" d="M 2841 2188 
Q 3044 2119 3236 1894 
Q 3428 1669 3622 1275 
L 4263 0 
L 3584 0 
L 2988 1197 
Q 2756 1666 2539 1819 
Q 2322 1972 1947 1972 
L 1259 1972 
L 1259 0 
L 628 0 
L 628 4666 
L 2053 4666 
Q 2853 4666 3247 4331 
Q 3641 3997 3641 3322 
Q 3641 2881 3436 2590 
Q 3231 2300 2841 2188 
z
M 1259 4147 
L 1259 2491 
L 2053 2491 
Q 2509 2491 2742 2702 
Q 2975 2913 2975 3322 
Q 2975 3731 2742 3939 
Q 2509 4147 2053 4147 
L 1259 4147 
z
" transform="scale(0.015625)"/>
       <path id="DejaVuSans-4d" d="M 628 4666 
L 1569 4666 
L 2759 1491 
L 3956 4666 
L 4897 4666 
L 4897 0 
L 4281 0 
L 4281 4097 
L 3078 897 
L 2444 897 
L 1241 4097 
L 1241 0 
L 628 0 
L 628 4666 
z
" transform="scale(0.015625)"/>
       <path id="DejaVuSans-45" d="M 628 4666 
L 3578 4666 
L 3578 4134 
L 1259 4134 
L 1259 2753 
L 3481 2753 
L 3481 2222 
L 1259 2222 
L 1259 531 
L 3634 531 
L 3634 0 
L 628 0 
L 628 4666 
z
" transform="scale(0.015625)"/>
       <path id="DejaVuSans-28" d="M 1984 4856 
Q 1566 4138 1362 3434 
Q 1159 2731 1159 2009 
Q 1159 1288 1364 580 
Q 1569 -128 1984 -844 
L 1484 -844 
Q 1016 -109 783 600 
Q 550 1309 550 2009 
Q 550 2706 781 3412 
Q 1013 4119 1484 4856 
L 1984 4856 
z
" transform="scale(0.015625)"/>
       <path id="DejaVuSans-6d" d="M 3328 2828 
Q 3544 3216 3844 3400 
Q 4144 3584 4550 3584 
Q 5097 3584 5394 3201 
Q 5691 2819 5691 2113 
L 5691 0 
L 5113 0 
L 5113 2094 
Q 5113 2597 4934 2840 
Q 4756 3084 4391 3084 
Q 3944 3084 3684 2787 
Q 3425 2491 3425 1978 
L 3425 0 
L 2847 0 
L 2847 2094 
Q 2847 2600 2669 2842 
Q 2491 3084 2119 3084 
Q 1678 3084 1418 2786 
Q 1159 2488 1159 1978 
L 1159 0 
L 581 0 
L 581 3500 
L 1159 3500 
L 1159 2956 
Q 1356 3278 1631 3431 
Q 1906 3584 2284 3584 
Q 2666 3584 2933 3390 
Q 3200 3197 3328 2828 
z
" transform="scale(0.015625)"/>
       <path id="DejaVuSans-29" d="M 513 4856 
L 1013 4856 
Q 1481 4119 1714 3412 
Q 1947 2706 1947 2009 
Q 1947 1309 1714 600 
Q 1481 -109 1013 -844 
L 513 -844 
Q 928 -128 1133 580 
Q 1338 1288 1338 2009 
Q 1338 2731 1133 3434 
Q 928 4138 513 4856 
z
" transform="scale(0.015625)"/>
      </defs>
      <use xlink:href="#DejaVuSans-53"/>
      <use xlink:href="#DejaVuSans-65" x="63.476562"/>
      <use xlink:href="#DejaVuSans-74" x="125"/>
      <use xlink:href="#DejaVuSans-74" x="164.208984"/>
      <use xlink:href="#DejaVuSans-6c" x="203.417969"/>
      <use xlink:href="#DejaVuSans-65" x="231.201172"/>
      <use xlink:href="#DejaVuSans-64" x="292.724609"/>
      <use xlink:href="#DejaVuSans-20" x="356.201172"/>
      <use xlink:href="#DejaVuSans-52" x="387.988281"/>
      <use xlink:href="#DejaVuSans-4d" x="457.470703"/>
      <use xlink:href="#DejaVuSans-53" x="543.75"/>
      <use xlink:href="#DejaVuSans-45" x="607.226562"/>
      <use xlink:href="#DejaVuSans-20" x="670.410156"/>
      <use xlink:href="#DejaVuSans-28" x="702.197266"/>
      <use xlink:href="#DejaVuSans-6d" x="741.210938"/>
      <use xlink:href="#DejaVuSans-29" x="838.623047"/>
     </g>
    </g>
   </g>
   <g id="line2d_21">
    <path d="M 66.288551 232.536236 
L 433.715824 242.821918 
" clip-path="url(#p5641364b51)" style="fill: none; stroke: #54a24b; stroke-opacity: 0.45; stroke-width: 1.2; stroke-linecap: square"/>
   </g>
   <g id="line2d_22">
    <path d="M 66.288551 144.513091 
L 433.715824 194.722494 
" clip-path="url(#p5641364b51)" style="fill: none; stroke: #54a24b; stroke-opacity: 0.45; stroke-width: 1.2; stroke-linecap: square"/>
   </g>
   <g id="line2d_23">
    <path d="M 66.288551 63.884528 
L 433.715824 154.540569 
" clip-path="url(#p5641364b51)" style="fill: none; stroke: #54a24b; stroke-opacity: 0.45; stroke-width: 1.2; stroke-linecap: square"/>
   </g>
   <g id="line2d_24">
    <path d="M 66.288551 44.777731 
L 433.715824 131.458582 
" clip-path="url(#p5641364b51)" style="fill: none; stroke: #54a24b; stroke-opacity: 0.45; stroke-width: 1.2; stroke-linecap: square"/>
   </g>
   <g id="line2d_25">
    <path d="M 66.288551 94.927704 
L 433.715824 80.566362 
" clip-path="url(#p5641364b51)" style="fill: none; stroke: #e45756; stroke-opacity: 0.45; stroke-width: 1.2; stroke-linecap: square"/>
   </g>
   <g id="line2d_26">
    <path d="M 66.288551 101.204586 
L 433.715824 154.697178 
" clip-path="url(#p5641364b51)" style="fill: none; stroke: #54a24b; stroke-opacity: 0.45; stroke-width: 1.2; stroke-linecap: square"/>
   </g>
   <g id="line2d_27">
    <path d="M 66.288551 187.461176 
L 433.715824 180.715527 
" clip-path="url(#p5641364b51)" style="fill: none; stroke: #e45756; stroke-opacity: 0.45; stroke-width: 1.2; stroke-linecap: square"/>
   </g>
   <g id="line2d_28">
    <path d="M 66.288551 117.663184 
L 433.715824 172.972644 
" clip-path="url(#p5641364b51)" style="fill: none; stroke: #54a24b; stroke-opacity: 0.45; stroke-width: 1.2; stroke-linecap: square"/>
   </g>
   <g id="line2d_29">
    <path d="M 66.288551 143.651785 
L 433.715824 108.45784 
" clip-path="url(#p5641364b51)" style="fill: none; stroke: #e45756; stroke-opacity: 0.45; stroke-width: 1.2; stroke-linecap: square"/>
   </g>
   <g id="line2d_30">
    <path d="M 66.288551 144.6184 
L 433.715824 214.312588 
" clip-path="url(#p5641364b51)" style="fill: none; stroke: #54a24b; stroke-opacity: 0.45; stroke-width: 1.2; stroke-linecap: square"/>
   </g>
   <g id="line2d_31">
    <path d="M 66.288551 167.65103 
L 433.715824 158.802147 
" clip-path="url(#p5641364b51)" style="fill: none; stroke: #e45756; stroke-opacity: 0.45; stroke-width: 1.2; stroke-linecap: square"/>
   </g>
   <g id="line2d_32">
    <path d="M 66.288551 51.147984 
L 433.715824 116.309391 
" clip-path="url(#p5641364b51)" style="fill: none; stroke: #54a24b; stroke-opacity: 0.45; stroke-width: 1.2; stroke-linecap: square"/>
   </g>
   <g id="line2d_33">
    <path d="M 66.288551 216.18365 
L 433.715824 203.040518 
" clip-path="url(#p5641364b51)" style="fill: none; stroke: #e45756; stroke-opacity: 0.45; stroke-width: 1.2; stroke-linecap: square"/>
   </g>
   <g id="line2d_34">
    <path d="M 66.288551 32.094645 
L 433.715824 194.172879 
" clip-path="url(#p5641364b51)" style="fill: none; stroke: #54a24b; stroke-opacity: 0.45; stroke-width: 1.2; stroke-linecap: square"/>
   </g>
   <g id="line2d_35">
    <path d="M 66.288551 168.459389 
L 433.715824 215.947966 
" clip-path="url(#p5641364b51)" style="fill: none; stroke: #54a24b; stroke-opacity: 0.45; stroke-width: 1.2; stroke-linecap: square"/>
   </g>
   <g id="line2d_36">
    <path d="M 66.288551 209.416053 
L 433.715824 187.549559 
" clip-path="url(#p5641364b51)" style="fill: none; stroke: #e45756; stroke-opacity: 0.45; stroke-width: 1.2; stroke-linecap: square"/>
   </g>
   <g id="line2d_37">
    <path d="M 66.288551 86.704798 
L 433.715824 183.431983 
" clip-path="url(#p5641364b51)" style="fill: none; stroke: #54a24b; stroke-opacity: 0.45; stroke-width: 1.2; stroke-linecap: square"/>
   </g>
   <g id="line2d_38">
    <path d="M 66.288551 33.834692 
L 433.715824 105.144143 
" clip-path="url(#p5641364b51)" style="fill: none; stroke: #54a24b; stroke-opacity: 0.45; stroke-width: 1.2; stroke-linecap: square"/>
   </g>
   <g id="line2d_39">
    <path d="M 66.288551 84.141177 
L 433.715824 180.590315 
" clip-path="url(#p5641364b51)" style="fill: none; stroke: #54a24b; stroke-opacity: 0.45; stroke-width: 1.2; stroke-linecap: square"/>
   </g>
   <g id="line2d_40">
    <path d="M 66.288551 78.967114 
L 433.715824 150.911205 
" clip-path="url(#p5641364b51)" style="fill: none; stroke: #54a24b; stroke-opacity: 0.45; stroke-width: 1.2; stroke-linecap: square"/>
   </g>
   <g id="patch_3">
    <path d="M 47.917188 253.358281 
L 47.917188 21.558281 
" style="fill: none; stroke: #000000; stroke-width: 0.8; stroke-linejoin: miter; stroke-linecap: square"/>
   </g>
   <g id="patch_4">
    <path d="M 47.917187 253.358281 
L 452.087187 253.358281 
" style="fill: none; stroke: #000000; stroke-width: 0.8; stroke-linejoin: miter; stroke-linecap: square"/>
   </g>
   <g id="text_12">
    <g id="patch_5">
     <path d="M 56.000588 52.768625 
L 158.109806 52.768625 
Q 161.259806 52.768625 161.259806 49.618625 
L 161.259806 30.830281 
Q 161.259806 27.680281 158.109806 27.680281 
L 56.000588 27.680281 
Q 52.850588 27.680281 52.850588 30.830281 
L 52.850588 49.618625 
Q 52.850588 52.768625 56.000588 52.768625 
z
" style="fill: #ffffff; opacity: 0.9; stroke: #cccccc; stroke-linejoin: miter"/>
    </g>
    <!-- mean: 13.01 → 8.87 m -->
    <g transform="translate(56.000588 37.668875) scale(0.09 -0.09)">
     <defs>
      <path id="DejaVuSans-3a" d="M 750 794 
L 1409 794 
L 1409 0 
L 750 0 
L 750 794 
z
M 750 3309 
L 1409 3309 
L 1409 2516 
L 750 2516 
L 750 3309 
z
" transform="scale(0.015625)"/>
      <path id="DejaVuSans-2192" d="M 5050 2147 
L 5050 1866 
L 3822 638 
L 3447 1013 
L 4175 1741 
L 366 1741 
L 366 2272 
L 4175 2272 
L 3447 3000 
L 3822 3375 
L 5050 2147 
z
" transform="scale(0.015625)"/>
      <path id="DejaVuSans-38" d="M 2034 2216 
Q 1584 2216 1326 1975 
Q 1069 1734 1069 1313 
Q 1069 891 1326 650 
Q 1584 409 2034 409 
Q 2484 409 2743 651 
Q 3003 894 3003 1313 
Q 3003 1734 2745 1975 
Q 2488 2216 2034 2216 
z
M 1403 2484 
Q 997 2584 770 2862 
Q 544 3141 544 3541 
Q 544 4100 942 4425 
Q 1341 4750 2034 4750 
Q 2731 4750 3128 4425 
Q 3525 4100 3525 3541 
Q 3525 3141 3298 2862 
Q 3072 2584 2669 2484 
Q 3125 2378 3379 2068 
Q 3634 1759 3634 1313 
Q 3634 634 3220 271 
Q 2806 -91 2034 -91 
Q 1263 -91 848 271 
Q 434 634 434 1313 
Q 434 1759 690 2068 
Q 947 2378 1403 2484 
z
M 1172 3481 
Q 1172 3119 1398 2916 
Q 1625 2713 2034 2713 
Q 2441 2713 2670 2916 
Q 2900 3119 2900 3481 
Q 2900 3844 2670 4047 
Q 2441 4250 2034 4250 
Q 1625 4250 1398 4047 
Q 1172 3844 1172 3481 
z
" transform="scale(0.015625)"/>
     </defs>
     <use xlink:href="#DejaVuSans-6d"/>
     <use xlink:href="#DejaVuSans-65" x="97.412109"/>
     <use xlink:href="#DejaVuSans-61" x="158.935547"/>
     <use xlink:href="#DejaVuSans-6e" x="220.214844"/>
     <use xlink:href="#DejaVuSans-3a" x="283.59375"/>
     <use xlink:href="#DejaVuSans-20" x="317.285156"/>
     <use xlink:href="#DejaVuSans-31" x="349.072266"/>
     <use xlink:href="#DejaVuSans-33" x="412.695312"/>
     <use xlink:href="#DejaVuSans-2e" x="476.318359"/>
     <use xlink:href="#DejaVuSans-30" x="508.105469"/>
     <use xlink:href="#DejaVuSans-31" x="571.728516"/>
     <use xlink:href="#DejaVuSans-20" x="635.351562"/>
     <use xlink:href="#DejaVuSans-2192" x="667.138672"/>
     <use xlink:href="#DejaVuSans-20" x="750.927734"/>
     <use xlink:href="#DejaVuSans-38" x="782.714844"/>
     <use xlink:href="#DejaVuSans-2e" x="846.337891"/>
     <use xlink:href="#DejaVuSans-38" x="878.125"/>
     <use xlink:href="#DejaVuSans-37" x="941.748047"/>
     <use xlink:href="#DejaVuSans-20" x="1005.371094"/>
     <use xlink:href="#DejaVuSans-6d" x="1037.158203"/>
    </g>
    <!-- Δ=4.14 m, p=0.0008 -->
    <g transform="translate(56.000588 47.746906) scale(0.09 -0.09)">
     <defs>
      <path id="DejaVuSans-394" d="M 2188 4044 
L 906 525 
L 3472 525 
L 2188 4044 
z
M 50 0 
L 1831 4666 
L 2547 4666 
L 4325 0 
L 50 0 
z
" transform="scale(0.015625)"/>
      <path id="DejaVuSans-3d" d="M 678 2906 
L 4684 2906 
L 4684 2381 
L 678 2381 
L 678 2906 
z
M 678 1631 
L 4684 1631 
L 4684 1100 
L 678 1100 
L 678 1631 
z
" transform="scale(0.015625)"/>
      <path id="DejaVuSans-34" d="M 2419 4116 
L 825 1625 
L 2419 1625 
L 2419 4116 
z
M 2253 4666 
L 3047 4666 
L 3047 1625 
L 3713 1625 
L 3713 1100 
L 3047 1100 
L 3047 0 
L 2419 0 
L 2419 1100 
L 313 1100 
L 313 1709 
L 2253 4666 
z
" transform="scale(0.015625)"/>
      <path id="DejaVuSans-2c" d="M 750 794 
L 1409 794 
L 1409 256 
L 897 -744 
L 494 -744 
L 750 256 
L 750 794 
z
" transform="scale(0.015625)"/>
      <path id="DejaVuSans-70" d="M 1159 525 
L 1159 -1331 
L 581 -1331 
L 581 3500 
L 1159 3500 
L 1159 2969 
Q 1341 3281 1617 3432 
Q 1894 3584 2278 3584 
Q 2916 3584 3314 3078 
Q 3713 2572 3713 1747 
Q 3713 922 3314 415 
Q 2916 -91 2278 -91 
Q 1894 -91 1617 61 
Q 1341 213 1159 525 
z
M 3116 1747 
Q 3116 2381 2855 2742 
Q 2594 3103 2138 3103 
Q 1681 3103 1420 2742 
Q 1159 2381 1159 1747 
Q 1159 1113 1420 752 
Q 1681 391 2138 391 
Q 2594 391 2855 752 
Q 3116 1113 3116 1747 
z
" transform="scale(0.015625)"/>
     </defs>
     <use xlink:href="#DejaVuSans-394"/>
     <use xlink:href="#DejaVuSans-3d" x="68.408203"/>
     <use xlink:href="#DejaVuSans-34" x="152.197266"/>
     <use xlink:href="#DejaVuSans-2e" x="215.820312"/>
     <use xlink:href="#DejaVuSans-31" x="247.607422"/>
     <use xlink:href="#DejaVuSans-34" x="311.230469"/>
     <use xlink:href="#DejaVuSans-20" x="374.853516"/>
     <use xlink:href="#DejaVuSans-6d" x="406.640625"/>
     <use xlink:href="#DejaVuSans-2c" x="504.052734"/>
     <use xlink:href="#DejaVuSans-20" x="535.839844"/>
     <use xlink:href="#DejaVuSans-70" x="567.626953"/>
     <use xlink:href="#DejaVuSans-3d" x="631.103516"/>
     <use xlink:href="#DejaVuSans-30" x="714.892578"/>
     <use xlink:href="#DejaVuSans-2e" x="778.515625"/>
     <use xlink:href="#DejaVuSans-30" x="810.302734"/>
     <use xlink:href="#DejaVuSans-30" x="873.925781"/>
     <use xlink:href="#DejaVuSans-30" x="937.548828"/>
     <use xlink:href="#DejaVuSans-38" x="1001.171875"/>
    </g>
   </g>
   <g id="text_13">
    <!-- Static 600 m localization improves under frequency agility -->
    <g transform="translate(89.114297 15.558281) scale(0.11 -0.11)">
     <defs>
      <path id="DejaVuSans-36" d="M 2113 2584 
Q 1688 2584 1439 2293 
Q 1191 2003 1191 1497 
Q 1191 994 1439 701 
Q 1688 409 2113 409 
Q 2538 409 2786 701 
Q 3034 994 3034 1497 
Q 3034 2003 2786 2293 
Q 2538 2584 2113 2584 
z
M 3366 4563 
L 3366 3988 
Q 3128 4100 2886 4159 
Q 2644 4219 2406 4219 
Q 1781 4219 1451 3797 
Q 1122 3375 1075 2522 
Q 1259 2794 1537 2939 
Q 1816 3084 2150 3084 
Q 2853 3084 3261 2657 
Q 3669 2231 3669 1497 
Q 3669 778 3244 343 
Q 2819 -91 2113 -91 
Q 1303 -91 875 529 
Q 447 1150 447 2328 
Q 447 3434 972 4092 
Q 1497 4750 2381 4750 
Q 2619 4750 2861 4703 
Q 3103 4656 3366 4563 
z
" transform="scale(0.015625)"/>
      <path id="DejaVuSans-6f" d="M 1959 3097 
Q 1497 3097 1228 2736 
Q 959 2375 959 1747 
Q 959 1119 1226 758 
Q 1494 397 1959 397 
Q 2419 397 2687 759 
Q 2956 1122 2956 1747 
Q 2956 2369 2687 2733 
Q 2419 3097 1959 3097 
z
M 1959 3584 
Q 2709 3584 3137 3096 
Q 3566 2609 3566 1747 
Q 3566 888 3137 398 
Q 2709 -91 1959 -91 
Q 1206 -91 779 398 
Q 353 888 353 1747 
Q 353 2609 779 3096 
Q 1206 3584 1959 3584 
z
" transform="scale(0.015625)"/>
      <path id="DejaVuSans-76" d="M 191 3500 
L 800 3500 
L 1894 563 
L 2988 3500 
L 3597 3500 
L 2284 0 
L 1503 0 
L 191 3500 
z
" transform="scale(0.015625)"/>
      <path id="DejaVuSans-73" d="M 2834 3397 
L 2834 2853 
Q 2591 2978 2328 3040 
Q 2066 3103 1784 3103 
Q 1356 3103 1142 2972 
Q 928 2841 928 2578 
Q 928 2378 1081 2264 
Q 1234 2150 1697 2047 
L 1894 2003 
Q 2506 1872 2764 1633 
Q 3022 1394 3022 966 
Q 3022 478 2636 193 
Q 2250 -91 1575 -91 
Q 1294 -91 989 -36 
Q 684 19 347 128 
L 347 722 
Q 666 556 975 473 
Q 1284 391 1588 391 
Q 1994 391 2212 530 
Q 2431 669 2431 922 
Q 2431 1156 2273 1281 
Q 2116 1406 1581 1522 
L 1381 1569 
Q 847 1681 609 1914 
Q 372 2147 372 2553 
Q 372 3047 722 3315 
Q 1072 3584 1716 3584 
Q 2034 3584 2315 3537 
Q 2597 3491 2834 3397 
z
" transform="scale(0.015625)"/>
      <path id="DejaVuSans-66" d="M 2375 4863 
L 2375 4384 
L 1825 4384 
Q 1516 4384 1395 4259 
Q 1275 4134 1275 3809 
L 1275 3500 
L 2222 3500 
L 2222 3053 
L 1275 3053 
L 1275 0 
L 697 0 
L 697 3053 
L 147 3053 
L 147 3500 
L 697 3500 
L 697 3744 
Q 697 4328 969 4595 
Q 1241 4863 1831 4863 
L 2375 4863 
z
" transform="scale(0.015625)"/>
     </defs>
     <use xlink:href="#DejaVuSans-53"/>
     <use xlink:href="#DejaVuSans-74" x="63.476562"/>
     <use xlink:href="#DejaVuSans-61" x="102.685547"/>
     <use xlink:href="#DejaVuSans-74" x="163.964844"/>
     <use xlink:href="#DejaVuSans-69" x="203.173828"/>
     <use xlink:href="#DejaVuSans-63" x="230.957031"/>
     <use xlink:href="#DejaVuSans-20" x="285.9375"/>
     <use xlink:href="#DejaVuSans-36" x="317.724609"/>
     <use xlink:href="#DejaVuSans-30" x="381.347656"/>
     <use xlink:href="#DejaVuSans-30" x="444.970703"/>
     <use xlink:href="#DejaVuSans-20" x="508.59375"/>
     <use xlink:href="#DejaVuSans-6d" x="540.380859"/>
     <use xlink:href="#DejaVuSans-20" x="637.792969"/>
     <use xlink:href="#DejaVuSans-6c" x="669.580078"/>
     <use xlink:href="#DejaVuSans-6f" x="697.363281"/>
     <use xlink:href="#DejaVuSans-63" x="758.544922"/>
     <use xlink:href="#DejaVuSans-61" x="813.525391"/>
     <use xlink:href="#DejaVuSans-6c" x="874.804688"/>
     <use xlink:href="#DejaVuSans-69" x="902.587891"/>
     <use xlink:href="#DejaVuSans-7a" x="930.371094"/>
     <use xlink:href="#DejaVuSans-61" x="982.861328"/>
     <use xlink:href="#DejaVuSans-74" x="1044.140625"/>
     <use xlink:href="#DejaVuSans-69" x="1083.349609"/>
     <use xlink:href="#DejaVuSans-6f" x="1111.132812"/>
     <use xlink:href="#DejaVuSans-6e" x="1172.314453"/>
     <use xlink:href="#DejaVuSans-20" x="1235.693359"/>
     <use xlink:href="#DejaVuSans-69" x="1267.480469"/>
     <use xlink:href="#DejaVuSans-6d" x="1295.263672"/>
     <use xlink:href="#DejaVuSans-70" x="1392.675781"/>
     <use xlink:href="#DejaVuSans-72" x="1456.152344"/>
     <use xlink:href="#DejaVuSans-6f" x="1495.015625"/>
     <use xlink:href="#DejaVuSans-76" x="1556.197266"/>
     <use xlink:href="#DejaVuSans-65" x="1615.376953"/>
     <use xlink:href="#DejaVuSans-73" x="1676.900391"/>
     <use xlink:href="#DejaVuSans-20" x="1729"/>
     <use xlink:href="#DejaVuSans-75" x="1760.787109"/>
     <use xlink:href="#DejaVuSans-6e" x="1824.166016"/>
     <use xlink:href="#DejaVuSans-64" x="1887.544922"/>
     <use xlink:href="#DejaVuSans-65" x="1951.021484"/>
     <use xlink:href="#DejaVuSans-72" x="2012.544922"/>
     <use xlink:href="#DejaVuSans-20" x="2053.658203"/>
     <use xlink:href="#DejaVuSans-66" x="2085.445312"/>
     <use xlink:href="#DejaVuSans-72" x="2120.650391"/>
     <use xlink:href="#DejaVuSans-65" x="2159.513672"/>
     <use xlink:href="#DejaVuSans-71" x="2221.037109"/>
     <use xlink:href="#DejaVuSans-75" x="2284.513672"/>
     <use xlink:href="#DejaVuSans-65" x="2347.892578"/>
     <use xlink:href="#DejaVuSans-6e" x="2409.416016"/>
     <use xlink:href="#DejaVuSans-63" x="2472.794922"/>
     <use xlink:href="#DejaVuSans-79" x="2527.775391"/>
     <use xlink:href="#DejaVuSans-20" x="2586.955078"/>
     <use xlink:href="#DejaVuSans-61" x="2618.742188"/>
     <use xlink:href="#DejaVuSans-67" x="2680.021484"/>
     <use xlink:href="#DejaVuSans-69" x="2743.498047"/>
     <use xlink:href="#DejaVuSans-6c" x="2771.28125"/>
     <use xlink:href="#DejaVuSans-69" x="2799.064453"/>
     <use xlink:href="#DejaVuSans-74" x="2826.847656"/>
     <use xlink:href="#DejaVuSans-79" x="2866.056641"/>
    </g>
   </g>
   <g id="PathCollection_21">
    <defs>
     <path id="mf939fcdae6" d="M 0 4.609772 
C 1.222526 4.609772 2.395145 4.124058 3.259601 3.259601 
C 4.124058 2.395145 4.609772 1.222526 4.609772 0 
C 4.609772 -1.222526 4.124058 -2.395145 3.259601 -3.259601 
C 2.395145 -4.124058 1.222526 -4.609772 0 -4.609772 
C -1.222526 -4.609772 -2.395145 -4.124058 -3.259601 -3.259601 
C -4.124058 -2.395145 -4.609772 -1.222526 -4.609772 0 
C -4.609772 1.222526 -4.124058 2.395145 -3.259601 3.259601 
C -2.395145 4.124058 -1.222526 4.609772 0 4.609772 
z
" style="stroke: #000000"/>
    </defs>
    <g clip-path="url(#p5641364b51)">
     <use xlink:href="#mf939fcdae6" x="66.288551" y="120.191948" style="stroke: #000000"/>
     <use xlink:href="#mf939fcdae6" x="433.715824" y="166.55829" style="stroke: #000000"/>
    </g>
   </g>
   <g id="legend_1">
    <g id="PathCollection_22">
     <g>
      <use xlink:href="#mf939fcdae6" x="403.265" y="34.134375" style="stroke: #000000"/>
     </g>
    </g>
    <g id="text_14">
     <!-- Mean -->
     <g transform="translate(419.465 36.496875) scale(0.09 -0.09)">
      <use xlink:href="#DejaVuSans-4d"/>
      <use xlink:href="#DejaVuSans-65" x="86.279297"/>
      <use xlink:href="#DejaVuSans-61" x="147.802734"/>
      <use xlink:href="#DejaVuSans-6e" x="209.082031"/>
     </g>
    </g>
   </g>
  </g>
 </g>
 <defs>
  <clipPath id="p5641364b51">
   <rect x="47.917188" y="21.558281" width="404.17" height="231.8"/>
  </clipPath>
 </defs>
</svg>
