<svg xmlns="http://www.w3.org/2000/svg" width="760" height="420" viewBox="0 0 760 420">
  <rect width="100%" height="100%" fill="white"/>
  <text x="380.0" y="24" text-anchor="middle" font-size="18" font-family="Arial">Quasi-static speed boundary at 600 m</text>
  <line x1="80" y1="40" x2="80" y2="350" stroke="#111827"/>
  <line x1="80" y1="350" x2="720" y2="350" stroke="#111827"/>
  <line x1="80" y1="301.7" x2="720" y2="301.7" stroke="#94a3b8" stroke-dasharray="5 5"/>
  <line x1="80" y1="320.0" x2="720" y2="320.0" stroke="#fecaca" stroke-dasharray="5 5"/>
  <polyline points="80.0,77.5 112.0,205.6 144.0,316.3 272.0,167.1 400.0,304.5 720.0,73.7" fill="none" stroke="#2563eb" stroke-width="3"/>
  <polyline points="80.0,303.8 112.0,226.5 144.0,270.1 272.0,289.3 400.0,162.2 720.0,70.0" fill="none" stroke="#dc2626" stroke-width="3"/>
  <circle cx="80.0" cy="77.5" r="4" fill="#2563eb"/><circle cx="80.0" cy="303.8" r="4" fill="#dc2626"/><circle cx="112.0" cy="205.6" r="4" fill="#2563eb"/><circle cx="112.0" cy="226.5" r="4" fill="#dc2626"/><circle cx="144.0" cy="316.3" r="4" fill="#2563eb"/><circle cx="144.0" cy="270.1" r="4" fill="#dc2626"/><circle cx="272.0" cy="167.1" r="4" fill="#2563eb"/><circle cx="272.0" cy="289.3" r="4" fill="#dc2626"/><circle cx="400.0" cy="304.5" r="4" fill="#2563eb"/><circle cx="400.0" cy="162.2" r="4" fill="#dc2626"/><circle cx="720.0" cy="73.7" r="4" fill="#2563eb"/><circle cx="720.0" cy="70.0" r="4" fill="#dc2626"/>
  <text x="80.0" y="382" font-size="12" text-anchor="middle">0.000</text><text x="112.0" y="382" font-size="12" text-anchor="middle">0.005</text><text x="144.0" y="382" font-size="12" text-anchor="middle">0.010</text><text x="272.0" y="382" font-size="12" text-anchor="middle">0.030</text><text x="400.0" y="382" font-size="12" text-anchor="middle">0.050</text><text x="720.0" y="382" font-size="12" text-anchor="middle">0.100</text>
  <text x="380.0" y="408" text-anchor="middle" font-size="13" font-family="Arial">speed (m/s)</text>
  <text x="18" y="210.0" transform="rotate(-90, 18, 210.0)" text-anchor="middle" font-size="13" font-family="Arial">mean RMSE gain, fixed-hop (m)</text>
  <text x="752" y="210.0" transform="rotate(90, 752, 210.0)" text-anchor="middle" font-size="13" fill="#dc2626" font-family="Arial">lag-1 reduction</text>
  <text x="90" y="60" font-size="13" fill="#2563eb" font-family="Arial">blue: RMSE gain</text>
  <text x="90" y="80" font-size="13" fill="#dc2626" font-family="Arial">red: DOA residual whitening</text>
</svg>
